# AST/ASF file generated using VICON BodyLanguage
# -----------------------------------------------
:version 1.10
:name VICON
:units
  mass 1.0
  length 0.45
  angle deg
:documentation
   .ast/.asf automatically generated from VICON data using
   VICON BodyBuilder and BodyLanguage model FoxedUp or BRILLIANT.MOD
:root
   order TX TY TZ RX RY RZ
   axis XYZ
   position 0 0 0  
   orientation 0 0 0 
:bonedata
  begin
     id 1 
     name lhipjoint
     direction 0.610259 -0.730986 0.305356 
     length 2.50941 
     axis 0 0 0  XYZ
  end
  begin
     id 2 
     name lfemur
     direction 0.34202 -0.939693 0  
     length 7.48822  
     axis 0 0 20  XYZ
    dof rx ry rz
    limits (-160.0 20.0)
           (-70.0 70.0)
           (-60.0 70.0)
  end
  begin
     id 3 
     name ltibia
     direction 0.34202 -0.939693 0   
     length 7.60141   
     axis 0 0 20   XYZ
    dof rx
    limits (-10.0 170.0)
  end
  begin
     id 4 
     name lfoot
     direction 0.0673488 -0.185039 0.980421   
     length 2.04049   
     axis -90 7.62852e-016 20   XYZ
    dof rx rz
    limits (-45.0 90.0)
           (-70.0 20.0)
  end
  begin
     id 5 
     name ltoes
     direction 1.5356e-011 -4.21729e-011 1   
     length 1.02897   
     axis -90 7.62852e-016 20   XYZ
    dof rx
    limits (-90.0 20.0)
  end
  begin
     id 6 
     name rhipjoint
     direction -0.57612 -0.754205 0.315056   
     length 2.43216  
     axis 0 0 0  XYZ 
  end
  begin
     id 7 
     name rfemur
     direction -0.34202 -0.939693 0   
     length 7.42799   
     axis 0 0 -20   XYZ
    dof rx ry rz
    limits (-160.0 20.0)
           (-70.0 70.0)
           (-70.0 60.0)
  end
  begin
     id 8 
     name rtibia
     direction -0.34202 -0.939693 0   
     length 7.69484   
     axis 0 0 -20   XYZ
    dof rx
    limits (-10.0 170.0)
 end
 begin
     id 9 
     name rfoot
     direction -0.111837 -0.30727 0.945028   
     length 2.15769  
     axis -90 -7.62852e-016 -20   XYZ
    dof rx rz
    limits (-45.0 90.0)
           (-20.0 70.0)
  end
  begin
     id 10 
     name rtoes
     direction -1.53539e-011 -4.21878e-011 1   
     length 1.07391   
     axis -90 -7.62852e-016 -20   XYZ
    dof rx
    limits (-90.0 20.0)
  end
  begin
     id 11 
     name lowerback
     direction 0.00552624 0.990109 -0.140195   
     length 2.12403   
     axis 0 0 0   XYZ
    dof rx ry rz
    limits (-20.0 45.0)
           (-30.0 30.0)
           (-30.0 30.0)
  end
  begin
     id 12 
     name upperback
     direction 0.00361898 0.999976 -0.00584723   
     length 2.13232   
     axis 0 0 0   XYZ
    dof rx ry rz
    limits (-20.0 45.0)
           (-30.0 30.0)
           (-30.0 30.0)
  end
  begin
     id 13 
     name thorax
     direction -0.000331275 0.998253 0.0590847   
     length 2.17688   
     axis 0 0 0   XYZ
    dof rx ry rz
    limits (-20.0 45.0)
           (-30.0 30.0)
           (-30.0 30.0)
  end
  begin
     id 14 
     name lowerneck
     direction -0.0561561 0.979832 0.19177   
     length 1.64159   
     axis 0 0 0   XYZ
    dof rx ry rz
    limits (-20.0 45.0)
           (-30.0 30.0)
           (-30.0 30.0)
  end
  begin
     id 15 
     name upperneck
     direction 0.0827153 0.979385 -0.184293   
     length 1.68939   
     axis 0 0 0   XYZ
    dof rx ry rz
    limits (-20.0 45.0)
           (-30.0 30.0)
           (-30.0 30.0)
  end
  begin
     id 16
     name head
     direction 0.0278583 0.995936 -0.0856488  
     length 1.70207  
     axis 0 0 0   XYZ
    dof rx ry rz
    limits (-20.0 45.0)
           (-30.0 30.0)
           (-30.0 30.0)
  end
  begin
     id 17 
     name lclavicle
     direction 0.950993 0.301131 -0.0702275  
     length 3.41652  
     axis 0 0 0   XYZ
    dof ry rz
    limits (-20.0 10.0)
           (0.0 20.0)
  end
  begin
     id 18 
     name lhumerus
     direction 1 -4.48981e-011 -3.9662e-029   
     length 5.32955   
     axis 180 -30 -90   XYZ
    dof rx ry rz
    limits (-60.0 90.0)
           (-90.0 90.0)
           (-90.0 90.0)
  end
  begin
     id 19
     name lradius
     direction 1 -4.48925e-011 -9.0549e-027   
     length 3.69232   
     axis 180 -30 -90   XYZ
    dof rx
    limits (-10.0 170.0)
  end
  begin
     id 20
     name lwrist
     direction 1 -4.49007e-011 -1.49005e-026   
     length 1.84616   
     axis 9.0955e-015 90 90   XYZ
    dof ry
    limits (-180.0 0.0)
 end
  begin
     id 21 
     name lhand
     direction 1 -4.49016e-011 -2.98023e-026   
     length 0.536598   
     axis 1.90115e-014 90 90   XYZ
    dof rx rz
    limits (-90.0 90.0)
           (-45.0 45.0)
  end
  begin
     id 22 
     name lfingers
     direction 1 -4.48924e-011 -5.9578e-026   
     length 0.432619   
     axis 3.80223e-014 90 90   XYZ
    dof rx
    limits (0.0 90.0)
  end
  begin
     id 23
     name lthumb
     direction 0.707107 -6.34947e-011 0.707107   
     length 0.621157   
     axis -90 45 -3.84942e-014   XYZ
    dof rx rz
    limits (-45.0 45.0)
           (-45.0 45.0)
  end
  begin
     id 24 
     name rclavicle
     direction -0.955495 0.276497 -0.102848   
     length 3.36357  
     axis 0 0 0   XYZ 
    dof ry rz
    limits (-10.0 20.0)
           (-20.0 0.0)
  end
  begin
     id 25 
     name rhumerus
     direction -1 -4.48961e-011 3.30983e-027  
     length 5.23431   
     axis 180 30 90   XYZ
    dof rx ry rz
    limits (-90.0 60.0)
           (-90.0 90.0)
           (-90.0 90.0)
  end
  begin
     id 26 
     name rradius
     direction -1 -4.48965e-011 -6.63263e-027   
     length 3.55301   
     axis 180 30 90   XYZ
    dof rx
    limits (-10.0 170.0)
  end
  begin
     id 27 
     name rwrist
     direction -1 -4.48942e-011 -1.48958e-026   
     length 1.77651   
     axis 9.0955e-015 -90 -90   XYZ
    dof ry
    limits (-180.0 0.0)
  end
  begin
     id 28
     name rhand
     direction -1 -4.48977e-011 -2.97966e-026   
     length 0.772522   
     axis 1.90115e-014 -90 -90   XYZ
    dof rx rz
    limits (-90.0 90.0)
           (-45.0 45.0)
  end
  begin
     id 29
     name rfingers
     direction -1 -4.49135e-011 -5.96389e-026   
     length 0.622827   
     axis 3.80223e-014 -90 -90   XYZ
    dof rx
    limits (0.0 90.0)
  end
  begin
     id 30
     name rthumb
     direction -0.707107 -6.34969e-011 0.707107   
     length 0.894259   
     axis -90 -45 3.84942e-014   XYZ
    dof rx rz
    limits (-45.0 45.0)
           (-45.0 45.0)
  end
:hierarchy
  begin
    root lhipjoint rhipjoint lowerback
    lhipjoint lfemur
    lfemur ltibia
    ltibia lfoot
    lfoot ltoes
    rhipjoint rfemur
    rfemur rtibia
    rtibia rfoot
    rfoot rtoes
    lowerback upperback
    upperback thorax
    thorax lowerneck lclavicle rclavicle
    lowerneck upperneck
    upperneck head
    lclavicle lhumerus
    lhumerus lradius
    lradius lwrist
    lwrist lhand lthumb
    lhand lfingers
    rclavicle rhumerus
    rhumerus rradius
    rradius rwrist
    rwrist rhand rthumb
    rhand rfingers
  end

#!OML:ASF F:\VICON\USERDATA\INSTALL\rory3\rory3.ASF
:FULLY-SPECIFIED
:DEGREES
62
root -11.9806 17.6686 -11.9842 -174.36 84.4656 -171.578
lowerback 12.6029 0.110109 -2.5211
upperback 0.500067 -0.0876876 1.27583
thorax -6.54479 0.0715426 2.78791
lowerneck -14.4916 -11.1077 -14.6365
upperneck 30.4205 -14.9758 10.846
head 15.0624 -6.56507 4.24922
rclavicle 5.09386e-015 2.78299e-015
rhumerus -38.1077 -22.0512 -72.8546
rradius 32.5896
rwrist 9.55215
rhand -17.5206 6.10883
rfingers 7.12502
rthumb 8.73301 -23.6905
lclavicle 5.09386e-015 2.78299e-015
lhumerus -36.2376 5.39498 77.0465
lradius 35.3872
lwrist -2.9075
lhand -15.58 25.8553
lfingers 7.12502
lthumb 10.6053 55.5677
rfemur -3.88837 3.72041 2.98559
rtibia 30.5454
rfoot -0.93264 -13.3376
rtoes 24.4828
lfemur -2.23895 -8.53745 -12.6543
ltibia 22.1383
lfoot -14.3537 -7.30314
ltoes -13.5136
63
root -11.9679 17.6548 -11.873 -178.918 84.3655 -176.14
lowerback 12.64 0.118176 -2.96945
upperback 0.472213 -0.15176 1.16359
thorax -6.59047 0.0527837 2.9355
lowerneck -14.5046 -11.1349 -14.8563
upperneck 30.557 -15.0044 10.9763
head 15.1731 -6.58154 4.33889
rclavicle 3.4601e-015 1.49089e-015
rhumerus -38.1672 -22.2197 -72.7845
rradius 32.5737
rwrist 9.80163
rhand -17.5272 6.12666
rfingers 7.12502
rthumb 8.72658 -23.6729
lclavicle 3.4601e-015 1.49089e-015
lhumerus -36.2381 5.52792 76.7854
lradius 35.2748
lwrist -3.27161
lhand -15.6411 25.6679
lfingers 7.12502
lthumb 10.5464 55.3833
rfemur -3.4084 4.02804 2.13234
rtibia 29.7917
rfoot -0.175297 -12.5528
rtoes 21.2026
lfemur -2.20298 -8.80021 -12.7455
ltibia 22.0863
lfoot -14.3331 -7.14724
ltoes -13.79
64
root -11.9584 17.6334 -11.7574 -182.036 84.2329 -179.256
lowerback 12.6625 0.13006 -3.3043
upperback 0.456546 -0.192074 1.07449
thorax -6.61634 0.04244 3.03865
lowerneck -14.5017 -11.1742 -14.9986
upperneck 30.6626 -15.0749 11.1118
head 15.2661 -6.60722 4.40925
rclavicle -8.47941e-015 -8.94531e-016
rhumerus -38.1874 -22.2881 -72.7886
rradius 32.574
rwrist 9.76494
rhand -17.4518 5.96185
rfingers 7.12502
rthumb 8.79934 -23.8347
lclavicle -8.47941e-015 -8.94531e-016
lhumerus -36.2024 5.24931 76.6616
lradius 35.237
lwrist -3.10339
lhand -15.4799 25.7028
lfingers 7.12502
lthumb 10.7019 55.4103
rfemur -2.99544 4.13996 1.44981
rtibia 29.1193
rfoot 0.652055 -11.2941
rtoes 16.6128
lfemur -2.17982 -8.96652 -12.6686
ltibia 22.0356
lfoot -14.4004 -6.99584
ltoes -16.1505
65
root -11.9423 17.6196 -11.6508 -177.964 84.3711 -175.384
lowerback 12.2621 0.118043 -2.87483
upperback 0.44557 -0.130969 1.16161
thorax -6.40829 0.0559174 2.87268
lowerneck -14.4641 -11.1502 -14.9115
upperneck 30.6366 -15.0546 11.0792
head 15.2283 -6.59443 4.38642
rclavicle 1.52505e-014 -5.66536e-015
rhumerus -38.0807 -22.2694 -72.8872
rradius 32.5446
rwrist 9.74106
rhand -17.5816 5.96607
rfingers 7.12502
rthumb 8.67409 -23.8357
lclavicle 1.52505e-014 -5.66536e-015
lhumerus -36.1504 5.25929 76.5153
lradius 35.2297
lwrist -2.88182
lhand -15.7513 25.966
lfingers 7.12502
lthumb 10.4401 55.6868
rfemur -2.81282 4.56055 1.55043
rtibia 28.3366
rfoot 1.18278 -9.5727
rtoes 13.0635
lfemur -2.36921 -9.15748 -11.8809
ltibia 22.1268
lfoot -14.5443 -6.4331
ltoes -18.5815
66
root -11.9326 17.6052 -11.5472 -182.484 84.5264 -180.364
lowerback 11.737 0.125514 -3.30243
upperback 0.351165 -0.177257 1.05842
thorax -6.20984 0.0395482 3.00988
lowerneck -14.4383 -11.0737 -15.0612
upperneck 30.5821 -14.923 11.1583
head 15.1983 -6.54954 4.47246
rclavicle 8.82107e-015 -5.06901e-015
rhumerus -37.8699 -21.9223 -73.0665
rradius 32.5396
rwrist 9.65297
rhand -17.8767 5.94511
rfingers 7.12502
rthumb 8.38937 -23.8683
lclavicle 8.82107e-015 -5.06901e-015
lhumerus -36.1438 5.76484 76.2867
lradius 35.1993
lwrist -3.00917
lhand -15.7157 26.0456
lfingers 7.12502
lthumb 10.4744 55.7646
rfemur -2.87198 5.01548 0.66051
rtibia 27.5584
rfoot 1.1295 -7.52651
rtoes 9.21177
lfemur -2.86642 -9.41778 -12.0269
ltibia 22.3181
lfoot -14.5107 -5.87541
ltoes -19.4869
67
root -11.9115 17.5881 -11.4106 -176.171 84.4868 -173.459
lowerback 12.1957 0.102656 -2.92445
upperback 0.519074 -0.144071 1.31313
thorax -6.29165 0.0509557 3.06231
lowerneck -14.3848 -11.0641 -15.0258
upperneck 30.5405 -14.8882 11.0585
head 15.1453 -6.54668 4.43161
rclavicle 1.50331e-014 3.08116e-015
rhumerus -37.8102 -21.6787 -73.2015
rradius 32.6447
rwrist 9.55152
rhand -18.1087 5.8292
rfingers 7.12502
rthumb 8.16543 -23.993
lclavicle 1.50331e-014 3.08116e-015
lhumerus -36.1123 5.94072 76.105
lradius 35.1275
lwrist -3.06793
lhand -15.7718 26.0351
lfingers 7.12502
lthumb 10.4203 55.7569
rfemur -1.70771 6.09956 1.41423
rtibia 26.7453
rfoot 0.305931 -6.19056
rtoes 3.72283
lfemur -2.38051 -9.8294 -10.8991
ltibia 22.5685
lfoot -14.4929 -5.84802
ltoes -19.1208
